<mxfile host="Electron" agent="Mozilla/5.0 (Windows NT 10.0; Win64; x64) AppleWebKit/537.36 (KHTML, like Gecko) draw.io/24.7.17 Chrome/128.0.6613.36 Electron/32.0.1 Safari/537.36" version="24.7.17">
  <diagram name="Страница — 1" id="5RrBuXyXbb_1JGPnbok0">
    <mxGraphModel dx="1434" dy="844" grid="1" gridSize="10" guides="1" tooltips="1" connect="1" arrows="1" fold="1" page="1" pageScale="1" pageWidth="4681" pageHeight="3300" math="0" shadow="0">
      <root>
        <mxCell id="0" />
        <mxCell id="1" parent="0" />
        <mxCell id="MPQ4FEZGRcfG3L3zv7Dk-1" value="" style="whiteSpace=wrap;html=1;aspect=fixed;fontSize=20;fontFamily=Times New Roman;" vertex="1" parent="1">
          <mxGeometry x="520" y="220" width="260" height="260" as="geometry" />
        </mxCell>
        <mxCell id="MPQ4FEZGRcfG3L3zv7Dk-3" value="256" style="rounded=0;whiteSpace=wrap;html=1;fontSize=18;fontFamily=Times New Roman;" vertex="1" parent="1">
          <mxGeometry x="520" y="220" width="130" height="260" as="geometry" />
        </mxCell>
        <mxCell id="MPQ4FEZGRcfG3L3zv7Dk-12" value="128" style="rounded=0;whiteSpace=wrap;html=1;fontSize=18;fontFamily=Times New Roman;" vertex="1" parent="1">
          <mxGeometry x="650" y="220" width="130" height="130" as="geometry" />
        </mxCell>
        <mxCell id="MPQ4FEZGRcfG3L3zv7Dk-13" value="64" style="rounded=0;whiteSpace=wrap;html=1;fontSize=18;fontFamily=Times New Roman;" vertex="1" parent="1">
          <mxGeometry x="650" y="350" width="70" height="130" as="geometry" />
        </mxCell>
        <mxCell id="MPQ4FEZGRcfG3L3zv7Dk-14" value="16" style="rounded=0;whiteSpace=wrap;html=1;fontSize=18;fontFamily=Times New Roman;" vertex="1" parent="1">
          <mxGeometry x="720" y="350" width="60" height="40" as="geometry" />
        </mxCell>
        <mxCell id="MPQ4FEZGRcfG3L3zv7Dk-15" value="16" style="rounded=0;whiteSpace=wrap;html=1;fontSize=18;fontFamily=Times New Roman;" vertex="1" parent="1">
          <mxGeometry x="720" y="390" width="60" height="40" as="geometry" />
        </mxCell>
        <mxCell id="MPQ4FEZGRcfG3L3zv7Dk-16" value="4" style="rounded=0;whiteSpace=wrap;html=1;fontSize=18;fontFamily=Times New Roman;" vertex="1" parent="1">
          <mxGeometry x="720" y="430" width="30" height="20" as="geometry" />
        </mxCell>
        <mxCell id="MPQ4FEZGRcfG3L3zv7Dk-17" value="4" style="rounded=0;whiteSpace=wrap;html=1;fontSize=18;fontFamily=Times New Roman;" vertex="1" parent="1">
          <mxGeometry x="750" y="430" width="30" height="20" as="geometry" />
        </mxCell>
        <mxCell id="MPQ4FEZGRcfG3L3zv7Dk-18" value="4" style="rounded=0;whiteSpace=wrap;html=1;fontSize=18;fontFamily=Times New Roman;" vertex="1" parent="1">
          <mxGeometry x="720" y="450" width="30" height="20" as="geometry" />
        </mxCell>
      </root>
    </mxGraphModel>
  </diagram>
</mxfile>
